<svg xmlns="http://www.w3.org/2000/svg" xmlns:xlink="http://www.w3.org/1999/xlink" width="153" zoomAndPan="magnify" viewBox="0 0 114.75 30.000001" height="40" preserveAspectRatio="xMidYMid meet" version="1.0"><defs><g/></defs><g fill="#348f92" fill-opacity="1"><g transform="translate(3.80519, 21.411292)"><g><path d="M 6.003906 -12.21875 L 0.175781 -12.21875 L 0.175781 -10.300781 L 2.128906 -10.300781 L 2.128906 0 L 4.050781 0 L 4.050781 -10.300781 L 6.003906 -10.300781 Z M 6.003906 -12.21875 "/></g></g></g><g fill="#348f92" fill-opacity="1"><g transform="translate(9.966238, 21.411292)"><g><path d="M 5.535156 -0.574219 C 6.109375 -1.152344 6.40625 -1.921875 6.40625 -2.863281 L 6.40625 -12.21875 L 4.484375 -12.21875 L 4.484375 -2.863281 C 4.484375 -2.445312 4.398438 -2.148438 4.222656 -1.988281 C 4.066406 -1.851562 3.824219 -1.78125 3.507812 -1.78125 C 3.160156 -1.78125 2.914062 -1.851562 2.777344 -1.988281 C 2.601562 -2.128906 2.53125 -2.425781 2.53125 -2.863281 L 2.53125 -12.21875 L 0.609375 -12.21875 L 0.609375 -2.863281 C 0.609375 -1.886719 0.890625 -1.132812 1.484375 -0.574219 C 1.988281 -0.0859375 2.671875 0.140625 3.507812 0.140625 C 4.3125 0.140625 4.992188 -0.0859375 5.535156 -0.574219 Z M 5.535156 -0.574219 "/></g></g></g><g fill="#348f92" fill-opacity="1"><g transform="translate(16.982504, 21.411292)"><g><path d="M 5.464844 -0.574219 C 6.039062 -1.132812 6.335938 -1.886719 6.335938 -2.863281 L 6.335938 -9.355469 C 6.335938 -10.316406 6.039062 -11.085938 5.464844 -11.644531 C 4.941406 -12.113281 4.277344 -12.359375 3.4375 -12.359375 C 2.601562 -12.359375 1.921875 -12.113281 1.414062 -11.644531 C 0.820312 -11.085938 0.542969 -10.316406 0.542969 -9.355469 L 0.542969 -2.863281 C 0.542969 -1.886719 0.820312 -1.132812 1.414062 -0.574219 C 1.921875 -0.0859375 2.601562 0.140625 3.4375 0.140625 C 4.277344 0.140625 4.941406 -0.0859375 5.464844 -0.574219 Z M 4.15625 -10.230469 C 4.328125 -10.070312 4.417969 -9.773438 4.417969 -9.355469 L 4.417969 -2.863281 C 4.417969 -2.425781 4.328125 -2.128906 4.15625 -1.988281 C 4.015625 -1.851562 3.769531 -1.78125 3.4375 -1.78125 C 3.105469 -1.78125 2.863281 -1.851562 2.722656 -1.988281 C 2.546875 -2.148438 2.460938 -2.445312 2.460938 -2.863281 L 2.460938 -9.355469 C 2.460938 -9.773438 2.546875 -10.054688 2.722656 -10.230469 C 2.863281 -10.367188 3.105469 -10.4375 3.4375 -10.4375 C 3.769531 -10.4375 4.015625 -10.367188 4.15625 -10.230469 Z M 4.15625 -10.230469 "/></g></g></g><g fill="#348f92" fill-opacity="1"><g transform="translate(23.859137, 21.411292)"><g><path d="M 6.597656 -12.21875 L 4.679688 -12.21875 L 4.679688 -6.039062 L 1.746094 -12.21875 L 0.628906 -12.21875 L 0.628906 0 L 2.546875 0 L 2.546875 -6.195312 L 5.480469 0 L 6.597656 0 Z M 6.597656 -12.21875 "/></g></g></g><g fill="#348f92" fill-opacity="1"><g transform="translate(31.08484, 21.411292)"><g><path d="M 5.464844 -0.574219 C 6.039062 -1.132812 6.335938 -1.886719 6.335938 -2.863281 L 6.335938 -7.070312 L 3.457031 -7.070312 L 3.457031 -5.148438 L 4.417969 -5.148438 L 4.417969 -2.863281 C 4.417969 -2.425781 4.328125 -2.128906 4.171875 -1.988281 C 4.015625 -1.851562 3.769531 -1.78125 3.4375 -1.78125 C 3.105469 -1.78125 2.863281 -1.851562 2.722656 -1.988281 C 2.546875 -2.148438 2.460938 -2.445312 2.460938 -2.863281 L 2.460938 -9.355469 C 2.460938 -9.773438 2.546875 -10.054688 2.722656 -10.230469 C 2.863281 -10.367188 3.105469 -10.4375 3.4375 -10.4375 C 3.769531 -10.4375 4.015625 -10.367188 4.171875 -10.230469 C 4.328125 -10.070312 4.417969 -9.773438 4.417969 -9.355469 L 4.417969 -8.273438 L 6.335938 -8.273438 L 6.335938 -9.355469 C 6.335938 -10.316406 6.039062 -11.085938 5.464844 -11.644531 C 4.941406 -12.113281 4.277344 -12.359375 3.4375 -12.359375 C 2.617188 -12.359375 1.9375 -12.113281 1.414062 -11.644531 C 0.820312 -11.050781 0.542969 -10.300781 0.542969 -9.355469 L 0.542969 -2.863281 C 0.542969 -1.921875 0.820312 -1.152344 1.414062 -0.574219 C 1.9375 -0.0859375 2.617188 0.140625 3.4375 0.140625 C 4.277344 0.140625 4.941406 -0.0859375 5.464844 -0.574219 Z M 5.464844 -0.574219 "/></g></g></g><g fill="#348f92" fill-opacity="1"><g transform="translate(37.978927, 21.411292)"><g><path d="M 6.003906 -12.21875 L 0.175781 -12.21875 L 0.175781 -10.300781 L 2.128906 -10.300781 L 2.128906 0 L 4.050781 0 L 4.050781 -10.300781 L 6.003906 -10.300781 Z M 6.003906 -12.21875 "/></g></g></g><g fill="#348f92" fill-opacity="1"><g transform="translate(44.139976, 21.411292)"><g><path d="M 5.078125 0 L 7.035156 0 L 4.589844 -12.21875 L 2.671875 -12.21875 L 0.226562 0 L 2.183594 0 L 2.53125 -1.9375 L 4.730469 -1.9375 Z M 2.863281 -3.859375 L 3.628906 -8.238281 L 4.398438 -3.859375 Z M 2.863281 -3.859375 "/></g></g></g><g fill="#348f92" fill-opacity="1"><g transform="translate(51.418042, 21.411292)"><g><path d="M 5.464844 -0.574219 C 6.039062 -1.132812 6.335938 -1.886719 6.335938 -2.863281 L 6.335938 -4.433594 L 4.417969 -4.433594 L 4.417969 -2.863281 C 4.417969 -2.425781 4.328125 -2.128906 4.171875 -1.988281 C 4.015625 -1.851562 3.769531 -1.78125 3.4375 -1.78125 C 3.105469 -1.78125 2.863281 -1.851562 2.722656 -1.988281 C 2.546875 -2.148438 2.460938 -2.445312 2.460938 -2.863281 L 2.460938 -9.355469 C 2.460938 -9.773438 2.546875 -10.054688 2.722656 -10.230469 C 2.863281 -10.367188 3.105469 -10.4375 3.4375 -10.4375 C 3.769531 -10.4375 4.015625 -10.367188 4.171875 -10.230469 C 4.328125 -10.070312 4.417969 -9.773438 4.417969 -9.355469 L 4.417969 -8.273438 L 6.335938 -8.273438 L 6.335938 -9.355469 C 6.335938 -10.316406 6.039062 -11.085938 5.464844 -11.644531 C 4.941406 -12.113281 4.277344 -12.359375 3.4375 -12.359375 C 2.617188 -12.359375 1.9375 -12.113281 1.414062 -11.644531 C 0.820312 -11.050781 0.542969 -10.300781 0.542969 -9.355469 L 0.542969 -2.863281 C 0.542969 -1.921875 0.820312 -1.152344 1.414062 -0.574219 C 1.9375 -0.0859375 2.617188 0.140625 3.4375 0.140625 C 4.277344 0.140625 4.941406 -0.0859375 5.464844 -0.574219 Z M 5.464844 -0.574219 "/></g></g></g><g fill="#348f92" fill-opacity="1"><g transform="translate(58.224869, 21.411292)"><g><path d="M 5.339844 -0.574219 C 5.917969 -1.132812 6.214844 -1.886719 6.214844 -2.863281 L 6.214844 -3.628906 C 6.214844 -4.746094 5.777344 -5.691406 4.921875 -6.457031 C 4.679688 -6.667969 4.257812 -6.929688 3.664062 -7.261719 C 3.316406 -7.4375 3.089844 -7.574219 2.984375 -7.679688 C 2.546875 -8.066406 2.339844 -8.519531 2.339844 -9.058594 L 2.339844 -9.355469 C 2.339844 -9.773438 2.425781 -10.054688 2.601562 -10.230469 C 2.742188 -10.367188 2.984375 -10.4375 3.316406 -10.4375 C 3.648438 -10.4375 3.894531 -10.367188 4.03125 -10.230469 C 4.207031 -10.070312 4.292969 -9.773438 4.292969 -9.355469 L 4.292969 -8.292969 L 6.214844 -8.292969 L 6.214844 -9.355469 C 6.214844 -10.316406 5.917969 -11.085938 5.339844 -11.644531 C 4.816406 -12.113281 4.15625 -12.359375 3.316406 -12.359375 C 2.480469 -12.359375 1.796875 -12.113281 1.292969 -11.644531 C 0.699219 -11.085938 0.417969 -10.316406 0.417969 -9.355469 L 0.417969 -9.058594 C 0.417969 -8.5 0.523438 -7.996094 0.75 -7.523438 C 0.960938 -7.035156 1.292969 -6.617188 1.710938 -6.25 C 1.953125 -6.023438 2.355469 -5.761719 2.914062 -5.480469 C 3.300781 -5.253906 3.542969 -5.097656 3.648438 -5.027344 C 4.066406 -4.625 4.292969 -4.15625 4.292969 -3.628906 L 4.292969 -2.863281 C 4.292969 -2.425781 4.207031 -2.128906 4.03125 -1.988281 C 3.894531 -1.851562 3.648438 -1.78125 3.316406 -1.78125 C 2.984375 -1.78125 2.742188 -1.851562 2.601562 -1.988281 C 2.425781 -2.148438 2.339844 -2.445312 2.339844 -2.863281 L 2.339844 -4.453125 L 0.417969 -4.453125 L 0.417969 -2.863281 C 0.417969 -1.886719 0.699219 -1.132812 1.292969 -0.574219 C 1.796875 -0.0859375 2.480469 0.140625 3.316406 0.140625 C 4.15625 0.140625 4.816406 -0.0859375 5.339844 -0.574219 Z M 5.339844 -0.574219 "/></g></g></g><g fill="#348f92" fill-opacity="1"><g transform="translate(64.857156, 21.411292)"><g><path d="M 5.078125 0 L 7.035156 0 L 4.589844 -12.21875 L 2.671875 -12.21875 L 0.226562 0 L 2.183594 0 L 2.53125 -1.9375 L 4.730469 -1.9375 Z M 2.863281 -3.859375 L 3.628906 -8.238281 L 4.398438 -3.859375 Z M 2.863281 -3.859375 "/></g></g></g><g fill="#348f92" fill-opacity="1"><g transform="translate(72.135222, 21.411292)"><g><path d="M 0.699219 0 L 5.761719 0 L 5.761719 -1.921875 L 2.617188 -1.921875 L 2.617188 -12.21875 L 0.699219 -12.21875 Z M 0.699219 0 "/></g></g></g><g fill="#348f92" fill-opacity="1"><g transform="translate(78.121741, 21.411292)"><g><path d="M 5.761719 -10.300781 L 5.761719 -12.21875 L 0.699219 -12.21875 L 0.699219 0 L 5.761719 0 L 5.761719 -1.921875 L 2.617188 -1.921875 L 2.617188 -5.304688 L 4.78125 -5.304688 L 4.78125 -7.226562 L 2.617188 -7.226562 L 2.617188 -10.300781 Z M 5.761719 -10.300781 "/></g></g></g><g fill="#348f92" fill-opacity="1"><g transform="translate(84.37006, 21.411292)"><g><path d="M 1.589844 -1.902344 C 1.308594 -1.902344 1.082031 -1.796875 0.890625 -1.605469 C 0.699219 -1.414062 0.609375 -1.1875 0.609375 -0.925781 C 0.609375 -0.644531 0.699219 -0.417969 0.890625 -0.226562 C 1.082031 -0.0351562 1.308594 0.0507812 1.589844 0.0507812 C 1.851562 0.0507812 2.078125 -0.0351562 2.269531 -0.226562 C 2.460938 -0.417969 2.566406 -0.644531 2.566406 -0.925781 C 2.566406 -1.1875 2.460938 -1.414062 2.269531 -1.605469 C 2.078125 -1.796875 1.851562 -1.902344 1.589844 -1.902344 Z M 1.589844 -1.902344 "/></g></g></g><g fill="#348f92" fill-opacity="1"><g transform="translate(87.546581, 21.411292)"><g><path d="M 5.464844 -0.574219 C 6.039062 -1.132812 6.335938 -1.886719 6.335938 -2.863281 L 6.335938 -4.433594 L 4.417969 -4.433594 L 4.417969 -2.863281 C 4.417969 -2.425781 4.328125 -2.128906 4.171875 -1.988281 C 4.015625 -1.851562 3.769531 -1.78125 3.4375 -1.78125 C 3.105469 -1.78125 2.863281 -1.851562 2.722656 -1.988281 C 2.546875 -2.148438 2.460938 -2.445312 2.460938 -2.863281 L 2.460938 -9.355469 C 2.460938 -9.773438 2.546875 -10.054688 2.722656 -10.230469 C 2.863281 -10.367188 3.105469 -10.4375 3.4375 -10.4375 C 3.769531 -10.4375 4.015625 -10.367188 4.171875 -10.230469 C 4.328125 -10.070312 4.417969 -9.773438 4.417969 -9.355469 L 4.417969 -8.273438 L 6.335938 -8.273438 L 6.335938 -9.355469 C 6.335938 -10.316406 6.039062 -11.085938 5.464844 -11.644531 C 4.941406 -12.113281 4.277344 -12.359375 3.4375 -12.359375 C 2.617188 -12.359375 1.9375 -12.113281 1.414062 -11.644531 C 0.820312 -11.050781 0.542969 -10.300781 0.542969 -9.355469 L 0.542969 -2.863281 C 0.542969 -1.921875 0.820312 -1.152344 1.414062 -0.574219 C 1.9375 -0.0859375 2.617188 0.140625 3.4375 0.140625 C 4.277344 0.140625 4.941406 -0.0859375 5.464844 -0.574219 Z M 5.464844 -0.574219 "/></g></g></g><g fill="#348f92" fill-opacity="1"><g transform="translate(94.353409, 21.411292)"><g><path d="M 5.464844 -0.574219 C 6.039062 -1.132812 6.335938 -1.886719 6.335938 -2.863281 L 6.335938 -9.355469 C 6.335938 -10.316406 6.039062 -11.085938 5.464844 -11.644531 C 4.941406 -12.113281 4.277344 -12.359375 3.4375 -12.359375 C 2.601562 -12.359375 1.921875 -12.113281 1.414062 -11.644531 C 0.820312 -11.085938 0.542969 -10.316406 0.542969 -9.355469 L 0.542969 -2.863281 C 0.542969 -1.886719 0.820312 -1.132812 1.414062 -0.574219 C 1.921875 -0.0859375 2.601562 0.140625 3.4375 0.140625 C 4.277344 0.140625 4.941406 -0.0859375 5.464844 -0.574219 Z M 4.15625 -10.230469 C 4.328125 -10.070312 4.417969 -9.773438 4.417969 -9.355469 L 4.417969 -2.863281 C 4.417969 -2.425781 4.328125 -2.128906 4.15625 -1.988281 C 4.015625 -1.851562 3.769531 -1.78125 3.4375 -1.78125 C 3.105469 -1.78125 2.863281 -1.851562 2.722656 -1.988281 C 2.546875 -2.148438 2.460938 -2.445312 2.460938 -2.863281 L 2.460938 -9.355469 C 2.460938 -9.773438 2.546875 -10.054688 2.722656 -10.230469 C 2.863281 -10.367188 3.105469 -10.4375 3.4375 -10.4375 C 3.769531 -10.4375 4.015625 -10.367188 4.15625 -10.230469 Z M 4.15625 -10.230469 "/></g></g></g><g fill="#348f92" fill-opacity="1"><g transform="translate(101.230042, 21.411292)"><g><path d="M 7.664062 -12.21875 L 4.730469 -5.445312 L 1.796875 -12.21875 L 0.699219 -12.21875 L 0.699219 0 L 2.617188 0 L 2.617188 -6.09375 L 4.171875 -1.921875 L 5.289062 -1.921875 L 6.84375 -6.09375 L 6.84375 0 L 8.761719 0 L 8.761719 -12.21875 Z M 7.664062 -12.21875 "/></g></g></g></svg>